<svg width="554" height="492" fill="none" xmlns="http://www.w3.org/2000/svg"><path opacity=".4" d="M502.917 49.964C386.277-5.54 334.826 146.239 254.396 171.212c-80.36 36.535-157.847-6.228-205.692 30.429-75.841 58.104-42.554 159.753 5.998 202.523 69.626 61.334 193.356 39.259 321.247-27.061C536.18 294.013 605.19 98.632 502.917 49.964Z" fill="#98C3E8"/><path opacity=".2" d="M115.308 110.461c4.028 10.07-8.056 25.781-25.378 31.018-14.905 4.506-29.407 4.028-33.435-6.446-3.563-9.265 7.654-19.335 20.544-24.572 12.89-5.237 34.241-10.071 38.269 0ZM247.033 89.916c-3.135-8.008 7.908-26.695 21.593-30.777 11.776-3.513 22.808-11.79 25.941-3.463 2.771 7.366-5.714 24.028-15.904 28.13-10.19 4.1-28.495 14.118-31.63 6.11ZM238.004 486.474c-3.135-8.008 6.464-20.423 20.149-24.505 11.776-3.513 23.213-3.073 26.346 5.254 2.772 7.367-6.119 15.311-16.309 19.412-10.19 4.101-27.052 7.847-30.186-.161ZM379.623 445.655c-6.522-15.332 14.265-49.399 42.7-57.202 24.467-6.714 63.976 7.018 70.494 22.961 5.767 14.104-32 11.771-53.172 19.613-21.172 7.841-53.501 29.959-60.022 14.628Z" fill="#98C3E8"/><mask id="a" style="mask-type:alpha" maskUnits="userSpaceOnUse" x="16" y="40" width="522" height="396"><path d="M488.7 51.2C375.447 1.188 330.05 148.31 253.592 174.53c-76.092 37.314-151.482-1.563-196.4 34.959-71.202 57.892-36.66 154.526 10.99 194.22 68.334 56.923 186.378 32.274 307.265-34.96C526.903 284.515 588.004 95.052 488.7 51.2Z" fill="#98C3E8"/></mask><g mask="url(#a)"><path fill="url(#b)" d="M-68.852-24.164h648.685V524.88H-68.852z"/><path d="M12.996 150.717c59.48 29.994 126.077 113.95 126.077 154.038 0 49.312-104.556 124.89-152.512 167.763l409.241 26.435c-14.573-65.241-51.369-210.281-28.977-242.494 28.977-41.687 146.242-31.519 211.992-23.894L596.61 47.009c-32.028 13.387-103.708 51.854-142.853 41.686-36.234-9.41-105.742-49.99-135.228-75.747" stroke="#fff" stroke-opacity=".2" stroke-width="15"/><path d="M166.017 104.964c16.268 84.729 60.497 240.054 107.267 183.523 58.463-70.664 104.725-162.172 148.445-101.675 34.976 48.397 86.424 143.87 107.776 185.556" stroke="#fff" stroke-opacity=".2" stroke-width="15"/><path fill-rule="evenodd" clip-rule="evenodd" d="M349.352 154.369a6.446 6.446 0 1 1-12.891-.001 6.446 6.446 0 0 1 12.891.001ZM82.679 293.748a6.445 6.445 0 1 0 0-12.89 6.445 6.445 0 0 0 0 12.89Zm140.184 82.177a6.446 6.446 0 1 0 0-12.892 6.446 6.446 0 0 0 0 12.892Zm220.751-95.068a6.445 6.445 0 1 0 0-12.89 6.445 6.445 0 0 0 0 12.89Z" fill="#fff" fill-opacity=".6"/><circle cx="58.509" cy="357.395" r="13.725" stroke="#fff" stroke-opacity=".4" stroke-width="8"/><circle cx="525.791" cy="134.227" r="13.725" stroke="#fff" stroke-opacity=".4" stroke-width="8"/><circle cx="324.376" cy="321.946" r="13.725" stroke="#fff" stroke-opacity=".4" stroke-width="8"/></g><g filter="url(#c)"><rect x="364.659" y="97.168" width="70.898" height="70.898" rx="10" fill="#fff"/></g><path d="M396.886 145.507v-9.668h6.445v9.668h8.057v-12.891h4.833l-16.113-14.501-16.113 14.501h4.834v12.891h8.057Z" fill="#5A98D0"/><g filter="url(#d)"><path d="M354.527 10h-22.1c-3.05 0-5.522 2.12-5.522 4.734V33.68c0 2.614 2.472 4.733 5.522 4.733h22.1c3.049 0 5.521-2.119 5.521-4.733V14.734c0-2.615-2.472-4.734-5.521-4.734Z" fill="#56CCF2"/></g><g clip-path="url(#e)"><path d="M351.769 23.214h-3.36l2.611-2.254-1.136-.987-3.755 3.24h-1.611v-1.39l3.754-3.241-1.144-.98-2.61 2.253v-2.9h-1.611v2.9l-2.611-2.254-1.144.98 3.755 3.242v1.39h-1.612l-3.754-3.24-1.136.987 2.61 2.254h-3.359v1.39h3.359l-2.61 2.254 1.136.987 3.754-3.24h1.612v1.39l-3.755 3.241 1.144.98 2.611-2.253v2.9h1.611v-2.9l2.61 2.254 1.144-.98-3.754-3.242v-1.39h1.611l3.755 3.24 1.136-.987-2.611-2.253h3.36v-1.391Z" fill="#fff"/></g><g filter="url(#f)"><path d="M494.6 81.631h-22.1c-3.05 0-5.522 2.12-5.522 4.734v18.946c0 2.614 2.472 4.733 5.522 4.733h22.1c3.049 0 5.521-2.119 5.521-4.733V86.365c0-2.614-2.472-4.734-5.521-4.734Z" fill="#F2C94C"/></g><path d="M491.148 93.454c0-3.477-3.223-6.259-7.251-6.259-4.028 0-7.251 2.782-7.251 6.26 0 2.155 1.289 4.102 3.223 5.215v1.739c0 .904.644 1.669 1.611 1.947v.139c0 1.182 1.047 2.086 2.417 2.086 1.37 0 2.417-.904 2.417-2.086v-.139c.967-.278 1.611-1.043 1.611-1.947V98.67c1.934-1.113 3.223-3.06 3.223-5.216Zm-12.891 0c0-2.712 2.498-4.868 5.64-4.868 3.142 0 5.64 2.156 5.64 4.868 0 2.434-2.095 4.451-4.834 4.799v-1.739l1.369-1.182c.322-.278.322-.696 0-.974a.867.867 0 0 0-1.128 0l-1.047.904-1.047-.904a.867.867 0 0 0-1.128 0c-.323.278-.323.696 0 .974l1.369 1.182v1.739c-2.739-.348-4.834-2.365-4.834-4.799Zm5.64 9.736c-.483 0-.806-.278-.806-.695h1.612c0 .417-.323.695-.806.695Zm2.417-2.781c0 .417-.322.695-.806.695h-3.222c-.484 0-.806-.278-.806-.695v-1.044a8.694 8.694 0 0 0 2.417.348c.886 0 1.692-.139 2.417-.348v1.044Z" fill="#fff"/><g filter="url(#g)"><path d="M317.355 81.631h-22.1c-3.05 0-5.522 2.12-5.522 4.734v18.946c0 2.614 2.472 4.733 5.522 4.733h22.1c3.049 0 5.521-2.119 5.521-4.733V86.365c0-2.614-2.472-4.734-5.521-4.734Z" fill="#F58A8A"/></g><g clip-path="url(#h)"><path d="M311.486 92.759h-.806v-1.391c0-1.92-1.805-3.477-4.028-3.477-2.224 0-4.028 1.557-4.028 3.477v1.39h-.806c-.886 0-1.611.627-1.611 1.392v6.954c0 .765.725 1.391 1.611 1.391h9.668c.886 0 1.611-.626 1.611-1.391V94.15c0-.765-.725-1.391-1.611-1.391Zm-4.834 6.259c-.886 0-1.612-.626-1.612-1.391s.726-1.391 1.612-1.391c.886 0 1.611.626 1.611 1.39 0 .766-.725 1.392-1.611 1.392Zm2.497-6.26h-4.995v-1.39c0-1.19 1.12-2.156 2.498-2.156 1.377 0 2.497.967 2.497 2.156v1.39Z" fill="#fff"/></g><g filter="url(#i)"><path d="M457.539 10H435.44c-3.05 0-5.522 2.12-5.522 4.734V33.68c0 2.614 2.472 4.733 5.522 4.733h22.099c3.05 0 5.522-2.119 5.522-4.733V14.734c0-2.615-2.472-4.734-5.522-4.734Z" fill="#6FCF97"/></g><path d="M451.115 20.36h-13.157v7.098h13.157V20.36ZM454.662 21.772l-2.904 1.054v2.196l2.904 1.054h1.053v-4.304h-1.053Z" fill="#fff"/><path d="M402.84 164.037c-.9 3.516.319 5.543 1.278 6.042 1.904.991 4.029 2.232 4.029 2.232s13.236 22.675 17.072 24.297c4.476 1.894 14.706 2.878 14.706 2.878l4.476-8.952s-10.23-2.238-14.706-3.197c-3.016-.646-16.305-15.026-16.305-15.026l2.558-4.476h-4.796c-3.517-2.558-5.422-7.826-5.422-7.826s-2.276 1.627-2.89 4.028Z" fill="url(#j)"/><path d="M455.278 204.723c-1.611-1.611-10.876-4.163-15.308-5.237l4.432-8.862c1.745 0 6.848-.403 13.293-2.014 8.057-2.014 10.876-9.265 20.141-1.612 7.412 6.123 20.276 32.898 25.782 45.52-8.658 8.252-14.408 10.932-25.782 13.293-.671-1.342-2.658-5.881-5.236-13.293-3.223-9.265-13.294-9.265-14.905-12.488-1.611-3.222-.403-13.293-2.417-15.307Z" fill="url(#k)"/><path d="M484.282 296.165c-2.901-6.445-2.954-37.06-4.029-51.159 9.825-1.931 15.013-4.419 23.365-12.891 0 0 13.696 6.446 12.89 21.35-.806 14.905 5.253 22.43 8.862 27.393 3.223 4.431 10.877 13.83 14.905 20.141l-4.028 7.654c-4.431-4.7-17.403-14.26-24.17-19.739-6.768-5.478-8.997-19.201-10.071-26.587-.671 7.788-4.028 22.075-2.417 26.587 1.612 4.512 18.933 18.128 25.781 24.976l-2.417 6.848c-11.682-5.506-35.771-18.128-38.671-24.573Z" fill="url(#l)"/><path d="M450.444 177.33c.322-1.289-.134-5.102.403-6.445 3.867.645 6.042 3.357 6.848 4.431.806-.134 1.961-.509 2.417.403.403.806 0 2.417-1.209 3.625l2.82 7.654c-1.336.868-2.15 1.16-3.625 1.612.805-2.015.403-3.626 0-4.432-2.901 2.256-4.029 2.149-5.237 2.015l-1.209-5.237-2.014.403c.403-.672.484-2.74.806-4.029Z" fill="url(#m)"/><path d="M457.695 175.316c-1.611-2.256-5.506-3.894-7.251-4.431-3.223-2.417-1.611-7.654 6.042-10.071 7.654-2.417 10.877 4.029 12.488 5.64 1.611 1.611 2.417 6.848 9.668 10.071 7.251 3.222 6.848-.806 11.279-.806s6.445 2.82 5.64 5.237c-.806 2.417-1.209 5.236 3.625 8.459s.403 7.654 0 12.488-6.848 2.417-13.696 2.417-5.64 0-6.848-4.431c-1.209-4.431-3.223-6.043-5.64-7.251-2.417-1.209-8.056-.403-9.265-1.612-.967-.966-3.625-8.19-4.834-11.682.537-.805 1.531-2.658 1.209-3.625-.322-.967-1.746-.671-2.417-.403Z" fill="#F2994A"/><path d="m442.387 224.059 19.336-1.209c2.256.322 6.043 3.088 7.654 4.431-.537 1.209-2.095 3.626-4.028 3.626-1.934 0-16.113-2.417-22.962-3.626h-1.611v-6.042l1.611 2.82Z" fill="url(#n)"/><path d="M440.776 230.101v-13.696h-6.848v13.696h6.848Z" fill="#F2C94C"/><path d="M536.247 332.017c-1.934-.322-9.803-7.788-13.294-11.279l2.417-6.848c1.612.671 4.995 1.853 5.64 2.819.805 1.209 7.654 15.711 5.237 15.308ZM545.915 323.155c-.967-1.612-6.849-9.4-9.668-14.502l4.028-7.654c1.88 1.611 2.014 1.611 4.028 4.431.937 1.311 2.82 19.739 1.612 17.725Z" fill="#5A98D0"/><path opacity=".2" d="m504.423 250.646-2.417 12.084c.403 4.432 2.82 15.308 6.848 22.962-4.834-15.308-3.223-26.721-4.431-35.046Z" fill="#000"/><path d="m157.605 431.515-1.209-4.028 6.446-1.208c3.088 1.611 9.023 5.156 8.056 6.445-.322.644-8.996-.537-13.293-1.209ZM124.976 393.649l3.625 6.043c-.268 4.162-1.128 12.326-2.417 11.682-1.289-.645-5.371-11.011-7.251-16.113l6.043-1.612Z" fill="#D06262"/><path d="M103.89 357.39c-4.293-4.46-8.195-12.866-9.609-16.511 4.131-1.998 13.312-6.565 16.986-8.844 3.674-2.28 10.642-7.451 13.666-9.752 1.765 1.59 6.899 5.514 13.321 8.483 16.493 7.787 25.913 17.843 29.168 26.848 2.605 7.204-8.065 17.867-14.127 22.335-3.512-5.968-5.625-8.382-9.789-14.067l1.416-6.603-8.318-2.471c1.229 1.64 5.259 7.04 11.541 15.524 11.335 14.168 15.261 38.375 15.807 48.708-2.115.464-7.322 1.321-11.232 1.033-.462-5.019-6.75-16.168-12.754-26.039-1.222 1.461-2.915 3.208-3.901 3.299-4.99-1.483-6.536-8.029-6.685-11.116l3.771-3.16c-.516-.825-1-1.6-1.443-2.313-6.174-9.95-22.45-19.78-27.818-25.354Z" fill="#1F3F68"/><path d="M126.464 321.333c-11.71 9.032-35.948 25.232-39.224 17.766-4.094-9.332-3.292-9.406-5.556-12.029-2.264-2.624-2.817-8.641-3.84-10.974-.515-1.172-4.663-6.302-7.979-12.616 0 0-.1-.182-.268-.516-2.354-4.594-4.213-9.764-3.908-14.472.234-6.898 5.482-11.348 5.482-11.348 3.127-3.334 6.06-3.894 7.077-3.804l.018.013c2.445 1.663 6.06 4.121 7.34 4.003 1.284-.118 3.115-2.541 4.324-3.75 6.127.65 7.999-.919 12.788-.266 5.907.806 21.855 9.129 34.343-13.027 1.24.29 4.036 1.393 6.042 1.208-6.848 20.142-12.89 26.411-18.53 28.385-4.328 1.515-7.738 1.937-10.432 1.91-.494 2.627-1.151 6.946-2.246 11.351 2.251 4.121 4.631 7.907 6.5 9.604 4.855 4.407 10.338 6.84 8.069 8.562Z" fill="#fff"/><path d="m126.234 345.221 10.808 11.951 7.88 2.107-.471 3.684c1.809-2.324 4.128-7.904-1.07-11.633-5.197-3.729-13.597-5.626-17.147-6.109ZM133.133 385.04l6.685 11.116-1.092 1.314c-.987-1.932-3.578-3.716-5.769-5.537-1.752-1.457-2.119-3.985-2.084-5.067l2.26-1.826ZM102.068 324.386c-11.438-1.213-25.349-13.176-30.874-19.005 12.777 11.365 27.624 14.449 32.327 12.803 3.762-1.317 6.646-11.121 8.162-15.171l3.06 5.239c.541 5.884-1.236 17.347-12.675 16.134ZM97.96 301.706c-2.537.463-9.1-5.097-12.044-7.792 10.84 7.902 10.862 3.862 24.558-5.806-.595.864-6.445 12.488-12.514 13.598Z" fill="#000" fill-opacity=".2"/><path d="M114.502 290.122c-1.38-.277-2.581-.744-4.028-2.014l1.209-2.82c-.135-.671-.323-2.175 0-2.82.322-.644 1.611-1.342 2.014-1.611l-.403 2.014 2.014-2.417 3.223 2.82-.403 2.82-2.417 1.208-1.209 2.82ZM143.909 257.493l-.806 4.028c-1.289.323-4.699-.671-6.042-1.208.403-1.209 1.692-4.431 2.014-6.043.322-1.611 3.357-3.356 4.834-4.028h1.611l-1.611 2.82v4.431Z" fill="#F2994A"/><path d="M76.233 265.147c.645 1.289 2.417 4.028 3.223 5.237.537-1.074 1.29-3.465 0-4.431-1.289-.967-2.417-2.552-2.82-3.223.403-.269 1.45-.806 2.417-.806-.644-4.834 2.686-6.579 4.431-6.848l6.848-.403.403 2.015c2.552-2.417 7.17-7.654 5.237-9.265-2.417-2.015-9.668 3.222-14.502 3.222-4.834 0-6.848 2.417-8.056 4.834-1.209 2.417 2.014 8.057 2.82 9.668Z" fill="#316099"/><path d="M85.499 277.635c-1.29 0-4.968-2.552-7.251-4.029 1.074-.537 1.611-2.578 1.611-3.222 0-.806.806-4.029 0-4.431-.805-.403-3.222-2.015-3.222-2.82 0-.645 1.61-.806 2.416-.806-.268-1.343-.322-4.431 1.612-6.042 1.933-1.612 7.25-1.746 9.668-1.612.134.538.644 2.82 1.611 7.654s-1.209 7.117-2.417 7.654l.403 3.625c-.94 1.209-3.142 4.029-4.431 4.029Z" fill="#F2994A"/><path d="m162.842 426.279-.403-4.834c-2.845.762-4.535.897-7.654.806l1.612 5.236 6.445-1.208ZM128.601 399.692l4.834-1.611c-2.157-2.479-2.883-3.894-3.625-6.446l-4.834 2.015 3.625 6.042Z" fill="#98C3E8"/><rect opacity=".8" x="150.354" y="200.292" width="214.534" height="152.512" rx="5" fill="url(#o)"/><path d="M150.354 205.292a5 5 0 0 1 5-5h57.022v152.512h-57.022a5 5 0 0 1-5-5V205.292Z" fill="#fff"/><circle cx="160.022" cy="209.959" r="3.223" fill="#FA9595"/><circle cx="170.495" cy="209.959" r="3.223" fill="#FDF397"/><circle cx="180.163" cy="209.959" r="3.223" fill="#C1FEBB"/><path opacity=".4" fill-rule="evenodd" clip-rule="evenodd" d="M157.605 285.691h46.729v5.64h-46.729v-5.64Zm0 11.279h46.728v5.64h-46.728v-5.64Zm31.42 12.891h-31.42v5.64h31.42v-5.64Z" fill="#5A98D0"/><path opacity=".1" fill-rule="evenodd" clip-rule="evenodd" d="M300.206 220.433h46.729v5.639h-46.729v-5.639Zm0 11.279h46.729v5.64h-46.729v-5.64Zm31.421 12.891h-31.421v5.639h31.421v-5.639Z" fill="#000"/><g filter="url(#p)"><rect x="143.909" y="221.238" width="65.258" height="40.283" rx="5" fill="#56CCF2"/></g><path d="M163.316 248.553a.858.858 0 0 0-.422-.773c-.276-.178-.737-.334-1.383-.469-.646-.136-1.185-.308-1.617-.516-.948-.458-1.422-1.122-1.422-1.992 0-.729.307-1.339.922-1.828.615-.49 1.396-.735 2.344-.735 1.01 0 1.825.25 2.445.75.625.5.938 1.149.938 1.946h-1.899c0-.365-.135-.667-.406-.906-.271-.245-.63-.368-1.078-.368-.417 0-.758.097-1.024.289a.916.916 0 0 0-.39.774.77.77 0 0 0 .367.68c.245.161.74.325 1.484.492.745.161 1.328.356 1.75.586.427.224.742.494.946.812.208.318.312.703.312 1.156 0 .761-.315 1.378-.945 1.852-.63.469-1.456.703-2.477.703-.692 0-1.31-.125-1.851-.375-.542-.25-.964-.594-1.266-1.031a2.443 2.443 0 0 1-.453-1.414h1.844c.026.448.195.794.507 1.039.313.239.727.359 1.243.359.5 0 .88-.094 1.14-.281a.892.892 0 0 0 .391-.75Zm6.347 2.297h-1.899v-8.453h1.899v8.453Zm-2.016-10.649c0-.291.091-.533.274-.726.187-.193.453-.289.796-.289.344 0 .61.096.797.289a.999.999 0 0 1 .282.726.989.989 0 0 1-.282.719c-.187.188-.453.281-.797.281-.343 0-.609-.093-.796-.281a1.003 1.003 0 0 1-.274-.719Zm7.269.141v2.055h1.492v1.406h-1.492v4.719c0 .323.062.557.187.703.131.14.36.211.688.211.219 0 .44-.026.664-.078v1.468c-.432.12-.849.18-1.25.18-1.458 0-2.188-.805-2.188-2.414v-4.789h-1.39v-1.406h1.39v-2.055h1.899Zm7.472 10.664c-1.203 0-2.18-.378-2.93-1.133-.745-.76-1.117-1.771-1.117-3.031v-.234c0-.844.161-1.597.484-2.258a3.74 3.74 0 0 1 1.375-1.555 3.625 3.625 0 0 1 1.969-.555c1.151 0 2.039.368 2.664 1.102.63.734.945 1.773.945 3.117v.766h-5.523c.057.698.289 1.25.695 1.656.412.406.927.609 1.547.609.87 0 1.578-.351 2.125-1.054l1.024.976a3.436 3.436 0 0 1-1.36 1.18c-.562.276-1.195.414-1.898.414Zm-.227-7.242c-.521 0-.942.182-1.265.547-.318.364-.521.872-.61 1.523h3.617v-.14c-.041-.636-.211-1.115-.507-1.438-.297-.328-.709-.492-1.235-.492Z" fill="#fff"/><rect x="226.086" y="214.793" width="63.647" height="62.036" rx="5" fill="#EB5757"/><g clip-path="url(#q)"><path d="M251.062 234.935v22.558l17.724-11.279-17.724-11.279Z" fill="#fff"/></g><g filter="url(#r)"><rect x="226.086" y="287.302" width="124.071" height="50.757" rx="5" fill="#6FCF97"/></g><path d="M236.962 323.557c7.654-5.237 10.877-12.085 25.378-12.085 14.502 0 15.775 8.057 24.573 8.057 10.474 0 20.544-15.711 31.824-15.711 11.279 0 14.099 8.057 20.141 8.46" stroke="#000" stroke-opacity=".1" stroke-width="2" stroke-linecap="round" stroke-linejoin="round"/><path d="M236.56 323.96c7.653-5.237 9.667-20.544 24.169-20.544s17.789 13.293 26.587 13.293c10.474 0 19.739-21.753 31.018-21.753s14.905 16.919 20.947 17.322" stroke="#fff" stroke-width="2" stroke-linecap="round" stroke-linejoin="round"/><defs><linearGradient id="b" x1="302.314" y1="-60.999" x2="271.841" y2="479.458" gradientUnits="userSpaceOnUse"><stop stop-color="#D1ECFF"/><stop offset="1" stop-color="#1070B1"/></linearGradient><linearGradient id="j" x1="450.651" y1="170.14" x2="408.942" y2="197.387" gradientUnits="userSpaceOnUse"><stop stop-color="#FFF8E1"/><stop offset="1" stop-color="#FFCC80"/></linearGradient><linearGradient id="k" x1="471.794" y1="183.567" x2="471.794" y2="245.811" gradientUnits="userSpaceOnUse"><stop stop-color="#AF6CED"/><stop offset="1" stop-color="#5E199D"/></linearGradient><linearGradient id="l" x1="510.264" y1="232.115" x2="510.264" y2="320.738" gradientUnits="userSpaceOnUse"><stop stop-color="#EB5757"/><stop offset="1" stop-color="#872727"/></linearGradient><linearGradient id="m" x1="463.527" y1="175.434" x2="448.928" y2="181.564" gradientUnits="userSpaceOnUse"><stop stop-color="#FFF8E1"/><stop offset="1" stop-color="#FFCC80"/></linearGradient><linearGradient id="n" x1="473.646" y1="223.72" x2="464.235" y2="240.864" gradientUnits="userSpaceOnUse"><stop stop-color="#FFF8E1"/><stop offset="1" stop-color="#FFCC80"/></linearGradient><linearGradient id="o" x1="155.505" y1="256.007" x2="401.633" y2="282.996" gradientUnits="userSpaceOnUse"><stop offset=".127" stop-color="#fff"/><stop offset=".972" stop-color="#fff" stop-opacity=".8"/></linearGradient><filter id="c" x="314.659" y="47.167" width="170.898" height="170.898" filterUnits="userSpaceOnUse" color-interpolation-filters="sRGB"><feFlood flood-opacity="0" result="BackgroundImageFix"/><feColorMatrix in="SourceAlpha" values="0 0 0 0 0 0 0 0 0 0 0 0 0 0 0 0 0 0 127 0" result="hardAlpha"/><feOffset/><feGaussianBlur stdDeviation="25"/><feColorMatrix values="0 0 0 0 0.0627451 0 0 0 0 0.439216 0 0 0 0 0.694118 0 0 0 0.25 0"/><feBlend in2="BackgroundImageFix" result="effect1_dropShadow_1:975"/><feBlend in="SourceGraphic" in2="effect1_dropShadow_1:975" result="shape"/></filter><filter id="d" x="316.905" y="0" width="63.143" height="58.413" filterUnits="userSpaceOnUse" color-interpolation-filters="sRGB"><feFlood flood-opacity="0" result="BackgroundImageFix"/><feColorMatrix in="SourceAlpha" values="0 0 0 0 0 0 0 0 0 0 0 0 0 0 0 0 0 0 127 0" result="hardAlpha"/><feOffset dx="5" dy="5"/><feGaussianBlur stdDeviation="7.5"/><feColorMatrix values="0 0 0 0 0 0 0 0 0 0 0 0 0 0 0 0 0 0 0.15 0"/><feBlend in2="BackgroundImageFix" result="effect1_dropShadow_1:975"/><feBlend in="SourceGraphic" in2="effect1_dropShadow_1:975" result="shape"/></filter><filter id="f" x="456.978" y="71.631" width="63.143" height="58.413" filterUnits="userSpaceOnUse" color-interpolation-filters="sRGB"><feFlood flood-opacity="0" result="BackgroundImageFix"/><feColorMatrix in="SourceAlpha" values="0 0 0 0 0 0 0 0 0 0 0 0 0 0 0 0 0 0 127 0" result="hardAlpha"/><feOffset dx="5" dy="5"/><feGaussianBlur stdDeviation="7.5"/><feColorMatrix values="0 0 0 0 0 0 0 0 0 0 0 0 0 0 0 0 0 0 0.15 0"/><feBlend in2="BackgroundImageFix" result="effect1_dropShadow_1:975"/><feBlend in="SourceGraphic" in2="effect1_dropShadow_1:975" result="shape"/></filter><filter id="g" x="279.733" y="71.631" width="63.143" height="58.413" filterUnits="userSpaceOnUse" color-interpolation-filters="sRGB"><feFlood flood-opacity="0" result="BackgroundImageFix"/><feColorMatrix in="SourceAlpha" values="0 0 0 0 0 0 0 0 0 0 0 0 0 0 0 0 0 0 127 0" result="hardAlpha"/><feOffset dx="5" dy="5"/><feGaussianBlur stdDeviation="7.5"/><feColorMatrix values="0 0 0 0 0 0 0 0 0 0 0 0 0 0 0 0 0 0 0.15 0"/><feBlend in2="BackgroundImageFix" result="effect1_dropShadow_1:975"/><feBlend in="SourceGraphic" in2="effect1_dropShadow_1:975" result="shape"/></filter><filter id="i" x="419.918" y="0" width="63.143" height="58.413" filterUnits="userSpaceOnUse" color-interpolation-filters="sRGB"><feFlood flood-opacity="0" result="BackgroundImageFix"/><feColorMatrix in="SourceAlpha" values="0 0 0 0 0 0 0 0 0 0 0 0 0 0 0 0 0 0 127 0" result="hardAlpha"/><feOffset dx="5" dy="5"/><feGaussianBlur stdDeviation="7.5"/><feColorMatrix values="0 0 0 0 0 0 0 0 0 0 0 0 0 0 0 0 0 0 0.15 0"/><feBlend in2="BackgroundImageFix" result="effect1_dropShadow_1:975"/><feBlend in="SourceGraphic" in2="effect1_dropShadow_1:975" result="shape"/></filter><filter id="p" x="138.909" y="216.238" width="85.258" height="60.283" filterUnits="userSpaceOnUse" color-interpolation-filters="sRGB"><feFlood flood-opacity="0" result="BackgroundImageFix"/><feColorMatrix in="SourceAlpha" values="0 0 0 0 0 0 0 0 0 0 0 0 0 0 0 0 0 0 127 0" result="hardAlpha"/><feOffset dx="5" dy="5"/><feGaussianBlur stdDeviation="5"/><feColorMatrix values="0 0 0 0 0.0627451 0 0 0 0 0.439216 0 0 0 0 0.694118 0 0 0 0.2 0"/><feBlend in2="BackgroundImageFix" result="effect1_dropShadow_1:975"/><feBlend in="SourceGraphic" in2="effect1_dropShadow_1:975" result="shape"/></filter><filter id="r" x="216.086" y="281.302" width="144.072" height="70.757" filterUnits="userSpaceOnUse" color-interpolation-filters="sRGB"><feFlood flood-opacity="0" result="BackgroundImageFix"/><feColorMatrix in="SourceAlpha" values="0 0 0 0 0 0 0 0 0 0 0 0 0 0 0 0 0 0 127 0" result="hardAlpha"/><feOffset dy="4"/><feGaussianBlur stdDeviation="5"/><feColorMatrix values="0 0 0 0 0.435294 0 0 0 0 0.811765 0 0 0 0 0.592157 0 0 0 0.2 0"/><feBlend in2="BackgroundImageFix" result="effect1_dropShadow_1:975"/><feBlend in="SourceGraphic" in2="effect1_dropShadow_1:975" result="shape"/></filter><clipPath id="e"><path fill="#fff" transform="translate(334.044 15.564)" d="M0 0h19.336v16.691H0z"/></clipPath><clipPath id="h"><path fill="#fff" transform="translate(296.984 87.195)" d="M0 0h19.336v16.691H0z"/></clipPath><clipPath id="q"><path fill="#fff" transform="translate(238.171 226.878)" d="M0 0h38.672v38.672H0z"/></clipPath></defs></svg>